<svg width="14" height="22" viewBox="0 0 14 22" fill="none" xmlns="http://www.w3.org/2000/svg">
<path d="M10.477 11.89L11.992 20.416C12.0268 20.6216 11.9303 20.8272 11.7499 20.9318C11.5696 21.0365 11.3433 21.0182 11.182 20.886L7.60202 18.199C7.24707 17.9338 6.75996 17.9338 6.40502 18.199L2.81902 20.885C2.65791 21.017 2.43189 21.0352 2.25168 20.9309C2.07147 20.8265 1.9748 20.6214 2.00902 20.416L3.52302 11.89" stroke="#6B3E26" stroke-width="2" stroke-linecap="round" stroke-linejoin="round"/>
<path d="M1 7C1 10.3115 3.68851 13 7 13C10.3115 13 13 10.3115 13 7C13 3.68851 10.3115 1 7 1C3.68851 1 1 3.68851 1 7H1" stroke="#6B3E26" stroke-width="2" stroke-linecap="round" stroke-linejoin="round"/>
</svg>
