<svg width="17" height="19" viewBox="0 0 17 19" fill="none" xmlns="http://www.w3.org/2000/svg">
<path d="M11.6669 7.50007C11.6669 9.33978 10.1733 10.8334 8.3336 10.8334C6.49388 10.8334 5.00027 9.33978 5.00027 7.50007M0.919434 4.19507H15.7478" stroke="#6B3E26" stroke-width="1.66667" stroke-linecap="round" stroke-linejoin="round"/>
<path d="M1.16683 3.72254C0.950459 4.01103 0.833496 4.36192 0.833496 4.72254V15.8334C0.833496 16.7538 1.57969 17.5 2.50016 17.5H14.1668C15.0873 17.5 15.8335 16.7538 15.8335 15.8334V4.72254C15.8335 4.36192 15.7165 4.01103 15.5002 3.72254L13.8335 1.50004C13.5187 1.08036 13.0248 0.833374 12.5002 0.833374H4.16683C3.64223 0.833374 3.14825 1.08036 2.8335 1.50004L1.16683 3.72254" stroke="#6B3E26" stroke-width="1.66667" stroke-linecap="round" stroke-linejoin="round"/>
</svg>
