<svg width="24" height="24" viewBox="0 0 24 24" fill="none" xmlns="http://www.w3.org/2000/svg">
<path d="M16 10C16 12.2077 14.2077 14 12 14C9.79237 14 8.00003 12.2077 8.00003 10M3.10303 6.034H20.897" stroke="#2C1A14" stroke-width="2" stroke-linecap="round" stroke-linejoin="round"/>
<path d="M3.4 5.467C3.14036 5.81319 3 6.23426 3 6.667V20C3 21.1038 3.89617 22 5 22H19C20.1038 22 21 21.1038 21 20V6.667C21 6.23426 20.8596 5.81319 20.6 5.467L18.6 2.8C18.2223 2.29639 17.6295 2 17 2H7C6.37049 2 5.77771 2.29639 5.4 2.8L3.4 5.467" stroke="#2C1A14" stroke-width="2" stroke-linecap="round" stroke-linejoin="round"/>
</svg>
