<svg width="20" height="20" viewBox="0 0 20 20" fill="none" xmlns="http://www.w3.org/2000/svg">
<path d="M16.6666 8.33335C16.6666 12.4942 12.0508 16.8275 10.5008 18.1659C10.2041 18.3889 9.79572 18.3889 9.49908 18.1659C7.94908 16.8275 3.33325 12.4942 3.33325 8.33335C3.33325 4.65392 6.32049 1.66669 9.99992 1.66669C13.6794 1.66669 16.6666 4.65392 16.6666 8.33335" stroke="#6B3E26" stroke-width="1.66667" stroke-linecap="round" stroke-linejoin="round"/>
<path d="M7.5 8.33331C7.5 9.7131 8.62021 10.8333 10 10.8333C11.3798 10.8333 12.5 9.7131 12.5 8.33331C12.5 6.95353 11.3798 5.83331 10 5.83331C8.62021 5.83331 7.5 6.95353 7.5 8.33331V8.33331" stroke="#6B3E26" stroke-width="1.66667" stroke-linecap="round" stroke-linejoin="round"/>
</svg>
