<svg width="20" height="20" viewBox="0 0 20 20" fill="none" xmlns="http://www.w3.org/2000/svg">
<g clip-path="url(#clip0_75_219)">
<path d="M13.3336 1.66663L11.4169 3.58329C10.464 4.5554 10.464 6.11118 11.4169 7.08329L12.9169 8.58329C13.889 9.53615 15.4448 9.53615 16.4169 8.58329L18.3335 6.66663M12.5002 12.5L2.75022 2.74996C2.07833 3.40827 1.69971 4.30932 1.69971 5.24996C1.69971 6.1906 2.07833 7.09165 2.75022 7.74996L8.83355 13.8333C9.41688 14.4166 10.5002 14.4166 11.1669 13.8333L13.3336 1.66663M13.3336 1.66663L19.1669 7.49996M2.58355 7.33329L7.91688 2.08329M15.8336 4.16663L10.0002 9.99996" stroke="#6B3E26" stroke-width="1.66667" stroke-linecap="round" stroke-linejoin="round"/>
</g>
<defs>
<clipPath id="clip0_75_219">
<rect width="20" height="20" fill="white"/>
</clipPath>
</defs>
</svg>
