<svg width="17" height="15" viewBox="0 0 17 15" fill="none" xmlns="http://www.w3.org/2000/svg">
<path d="M15.8335 3.33382L14.1668 5.00048L12.9168 1.91715C12.6755 1.2712 12.0613 0.840552 11.3718 0.833817H5.3335C4.63809 0.817845 4.00589 1.23543 3.74766 1.88132L2.50016 5.00048L0.833496 3.33382M4.16683 8.33382H4.17516M12.5002 8.33382H12.5085" stroke="#6B3E26" stroke-width="1.66667" stroke-linecap="round" stroke-linejoin="round"/>
<path d="M2.50016 5.00049H14.1668C15.0873 5.00049 15.8335 5.74668 15.8335 6.66715V10.0005C15.8335 10.921 15.0873 11.6672 14.1668 11.6672H2.50016C1.57969 11.6672 0.833496 10.921 0.833496 10.0005V6.66715C0.833496 5.74668 1.57969 5.00049 2.50016 5.00049V5.00049" stroke="#6B3E26" stroke-width="1.66667" stroke-linecap="round" stroke-linejoin="round"/>
<path d="M2.5 11.6671V13.3338M14.1667 11.6671V13.3338" stroke="#6B3E26" stroke-width="1.66667" stroke-linecap="round" stroke-linejoin="round"/>
</svg>
